<?xml version="1.0" encoding="UTF-8" standalone="no"?>
<!-- Created with Inkscape (http://www.inkscape.org/) -->

<svg
   xmlns:dc="http://purl.org/dc/elements/1.1/"
   xmlns:cc="http://creativecommons.org/ns#"
   xmlns:rdf="http://www.w3.org/1999/02/22-rdf-syntax-ns#"
   xmlns:svg="http://www.w3.org/2000/svg"
   xmlns="http://www.w3.org/2000/svg"
   xmlns:xlink="http://www.w3.org/1999/xlink"
   xmlns:sodipodi="http://sodipodi.sourceforge.net/DTD/sodipodi-0.dtd"
   xmlns:inkscape="http://www.inkscape.org/namespaces/inkscape"
   width="744.09448819"
   height="1052.3622047"
   id="svg2"
   version="1.1"
   inkscape:version="0.48.1 "
   sodipodi:docname="New document 1">
  <defs
     id="defs4">
    <linearGradient
       id="linearGradient4320">
      <stop
         style="stop-color:#0000ff;stop-opacity:0;"
         offset="0"
         id="stop4322" />
      <stop
         style="stop-color:#0000ff;stop-opacity:1;"
         offset="1"
         id="stop4324" />
    </linearGradient>
    <radialGradient
       inkscape:collect="always"
       xlink:href="#linearGradient4320"
       id="radialGradient4330"
       cx="542.4519"
       cy="395.76303"
       fx="542.4519"
       fy="395.76303"
       r="101.01525"
       gradientUnits="userSpaceOnUse" />
  </defs>
  <sodipodi:namedview
     id="base"
     pagecolor="#ffffff"
     bordercolor="#666666"
     borderopacity="1.0"
     inkscape:pageopacity="0.0"
     inkscape:pageshadow="2"
     inkscape:zoom="0.24748737"
     inkscape:cx="421.86259"
     inkscape:cy="600.8122"
     inkscape:document-units="px"
     inkscape:current-layer="layer1"
     showgrid="false"
     inkscape:window-width="1600"
     inkscape:window-height="838"
     inkscape:window-x="-8"
     inkscape:window-y="-8"
     inkscape:window-maximized="1" />
  <metadata
     id="metadata7">
    <rdf:RDF>
      <cc:Work
         rdf:about="">
        <dc:format>image/svg+xml</dc:format>
        <dc:type
           rdf:resource="http://purl.org/dc/dcmitype/StillImage" />
        <dc:title></dc:title>
      </cc:Work>
    </rdf:RDF>
  </metadata>
  <g
     inkscape:label="Layer 1"
     inkscape:groupmode="layer"
     id="layer1">
    <path
       style="fill:#ff0000;fill-opacity:1;stroke:#000000;stroke-width:10;stroke-miterlimit:4;stroke-opacity:1;stroke-dasharray:none"
       d="m 272.23549,282.12874 c -15.10985,0 -27.28124,12.17139 -27.28124,27.28125 l 0,15.0625 c 9.51028,-18.03381 24.3107,-32.83222 42.34374,-42.34375 l -15.0625,0 z m 109.1875,0 c 18.02747,9.51177 32.83564,24.31405 42.34375,42.34375 l 0,-15.0625 c 0,-15.10986 -12.17139,-27.28125 -27.28125,-27.28125 l -15.0625,0 z m -136.46874,136.4375 0,15.0625 c 0,15.10986 12.17139,27.28125 27.28124,27.28125 l 15.0625,0 c -18.03304,-9.51153 -32.83346,-24.30994 -42.34374,-42.34375 z m 178.81249,0 c -9.50811,18.0297 -24.31628,32.83198 -42.34375,42.34375 l 15.0625,0 c 15.10986,0 27.28125,-12.17139 27.28125,-27.28125 l 0,-15.0625 z"
       id="rect2985"
       inkscape:connector-curvature="0" />
    <path
       sodipodi:type="arc"
       style="fill:url(#radialGradient4330);fill-opacity:1;stroke:none"
       id="path3779"
       sodipodi:cx="557.60419"
       sodipodi:cy="418.99655"
       sodipodi:rx="101.01525"
       sodipodi:ry="101.01525"
       d="m 658.61944,418.99655 a 101.01525,101.01525 0 1 1 -202.0305,0 101.01525,101.01525 0 1 1 202.0305,0 z"
       transform="translate(-223.24369,-47.477187)" />
  </g>
</svg>
